HIERARCHY
ROOT Hips
{
	OFFSET 0.000000 0.000000 0.000000
	CHANNELS 6 Xposition Yposition Zposition Zrotation Yrotation Xrotation 
	JOINT LHipJoint
	{
		OFFSET 0.000000 0.000000 0.000000
		CHANNELS 3 Zrotation Yrotation Xrotation
		JOINT LeftUpLeg
		{
			OFFSET 1.363060 -1.794630 0.839290
			CHANNELS 3 Zrotation Yrotation Xrotation
			JOINT LeftLeg
			{
				OFFSET 2.448110 -6.726130 0.000000
				CHANNELS 3 Zrotation Yrotation Xrotation
				JOINT LeftFoot
				{
					OFFSET 2.562200 -7.039590 0.000000
					CHANNELS 3 Zrotation Yrotation Xrotation
					JOINT LeftToeBase
					{
						OFFSET 0.157640 -0.433110 2.322550
						CHANNELS 3 Zrotation Yrotation Xrotation
						End Site
						{
							OFFSET 0.000000 0.000000 0.000000
						}
					}
				}
			}
		}
	}
	JOINT RHipJoint
	{
		OFFSET 0.000000 0.000000 0.000000
		CHANNELS 3 Zrotation Yrotation Xrotation
		JOINT RightUpLeg
		{
			OFFSET -1.305520 -1.794630 0.839290
			CHANNELS 3 Zrotation Yrotation Xrotation
			JOINT RightLeg
			{
				OFFSET -2.542530 -6.985550 0.000000
				CHANNELS 3 Zrotation Yrotation Xrotation
				JOINT RightFoot
				{
					OFFSET -2.568260 -7.056230 0.000000
					CHANNELS 3 Zrotation Yrotation Xrotation
					JOINT RightToeBase
					{
						OFFSET -0.164730 -0.452590 2.363150
						CHANNELS 3 Zrotation Yrotation Xrotation
						End Site
						{
							OFFSET 0.000000 0.000000 0.000000
						}
					}
				}
			}
		}
	}
	JOINT LowerBack
	{
		OFFSET 0.000000 0.000000 0.000000
		CHANNELS 3 Zrotation Yrotation Xrotation
		JOINT Spine
		{
			OFFSET 0.028270 2.035590 -0.193380
			CHANNELS 3 Zrotation Yrotation Xrotation
			JOINT Spine1
			{
				OFFSET 0.056720 2.048850 -0.042750
				CHANNELS 3 Zrotation Yrotation Xrotation
				JOINT Neck
				{
					OFFSET 0.000000 0.000000 0.000000
					CHANNELS 3 Zrotation Yrotation Xrotation
					JOINT Neck1
					{
						OFFSET -0.054170 1.746240 0.172020
						CHANNELS 3 Zrotation Yrotation Xrotation
						JOINT Head
						{
							OFFSET 0.104070 1.761360 -0.123970
							CHANNELS 3 Zrotation Yrotation Xrotation
							End Site
							{
								OFFSET 0.000000 0.000000 0.000000
							}
						}
					}
				}
				JOINT LeftShoulder
				{
					OFFSET 0.000000 0.000000 0.000000
					CHANNELS 3 Zrotation Yrotation Xrotation
					JOINT LeftArm
					{
						OFFSET 3.362410 1.200890 -0.311210
						CHANNELS 3 Zrotation Yrotation Xrotation
						JOINT LeftForeArm
						{
							OFFSET 4.983000 -0.000000 -0.000000
							CHANNELS 3 Zrotation Yrotation Xrotation
							JOINT LeftHand
							{
								OFFSET 3.483560 -0.000000 -0.000000
								CHANNELS 3 Zrotation Yrotation Xrotation
								JOINT LeftFingerBase
								{
									OFFSET 0.000000 0.000000 0.000000
									CHANNELS 3 Zrotation Yrotation Xrotation
									JOINT LeftHandIndex1
									{
										OFFSET 0.715260 -0.000000 -0.000000
										CHANNELS 3 Zrotation Yrotation Xrotation
										End Site
										{
											OFFSET 0.000000 0.000000 0.000000
										}
									}
								}
								JOINT LThumb
								{
									OFFSET 0.000000 0.000000 0.000000
									CHANNELS 3 Zrotation Yrotation Xrotation
									End Site
									{
										OFFSET 0.000000 0.000000 0.000000
									}
								}
							}
						}
					}
				}
				JOINT RightShoulder
				{
					OFFSET 0.000000 0.000000 0.000000
					CHANNELS 3 Zrotation Yrotation Xrotation
					JOINT RightArm
					{
						OFFSET -3.136600 1.374050 -0.404650
						CHANNELS 3 Zrotation Yrotation Xrotation
						JOINT RightForeArm
						{
							OFFSET -5.241900 -0.000000 -0.000000
							CHANNELS 3 Zrotation Yrotation Xrotation
							JOINT RightHand
							{
								OFFSET -3.444170 -0.000000 -0.000000
								CHANNELS 3 Zrotation Yrotation Xrotation
								JOINT RightFingerBase
								{
									OFFSET 0.000000 0.000000 0.000000
									CHANNELS 3 Zrotation Yrotation Xrotation
									JOINT RightHandIndex1
									{
										OFFSET -0.622530 -0.000000 -0.000000
										CHANNELS 3 Zrotation Yrotation Xrotation
										End Site
										{
											OFFSET 0.000000 0.000000 0.000000
										}
									}
								}
								JOINT RThumb
								{
									OFFSET 0.000000 0.000000 0.000000
									CHANNELS 3 Zrotation Yrotation Xrotation
									End Site
									{
										OFFSET 0.000000 0.000000 0.000000
									}
								}
							}
						}
					}
				}
			}
		}
	}
}
MOTION
Frames: 10
Frame Time: 0.008333
16.640753 18.035406 22.826750 173.465828 -8.450517 -151.146248 10.949635 1.104097 -2.620513 -4.586669 -28.932290 -68.298951 8.244275 23.050918 59.563415 -0.038901 -9.009786 -21.282175 5.246100 -13.655700 -41.875200 -13.983015 -2.610961 -2.164697 21.694290 18.274704 -16.433293 1.060039 -5.233485 13.003360 -1.813849 -7.190034 -28.930793 -0.739800 5.494600 -15.324700 -3.929224 0.365736 -13.275473 0.970667 1.062183 -3.563877 -0.377816 -0.306640 13.588357 -9.302178 -2.390077 -5.201013 9.606508 -6.486268 30.592958 1.222700 -2.162900 7.814800 16.730603 -1.310913 0.757781 -102.429025 -5.542350 24.949666 16.035616 -19.738014 -3.668708 -1.629411 0.668925 1.780313 21.480118 -12.206843 -5.378800 -7.125000 0.000000 0.000000 -2.872600 16.182100 1.960700 -11.614497 1.296168 0.067992 94.310625 3.080454 14.523972 -20.300529 32.273097 -7.499578 0.576341 3.560158 -4.481780 -15.061215 -47.896806 12.536900 7.125000 0.000000 0.000000 -11.458000 9.269300 -170.336700 
16.581523 18.039777 22.775279 173.510313 -8.187457 -151.244349 10.947677 1.116744 -2.602283 -4.983834 -28.916052 -68.017552 8.322556 23.082210 59.802293 -0.027859 -9.113264 -21.457431 4.940900 -13.316900 -40.566700 -13.984802 -2.619621 -2.218219 21.712958 18.464337 -15.455725 1.121561 -4.793537 12.071380 -1.762388 -7.592866 -28.625662 -0.799000 5.705200 -15.931500 -4.079000 0.367247 -12.929330 0.954917 1.113149 -3.474316 -0.303732 -0.305335 13.729474 -9.345271 -2.546275 -5.595601 9.571025 -6.491547 30.253108 1.212800 -2.154800 7.801300 16.710108 -1.310728 0.749814 -102.412711 -5.848271 24.865908 16.018930 -19.702306 -3.656789 -1.617382 0.695988 1.873336 21.399688 -12.396534 -5.443700 -7.125000 0.000000 0.000000 -2.946200 15.960500 2.025200 -11.621214 1.328532 0.057159 94.170485 3.374148 14.672121 -20.351063 32.320265 -7.527574 0.570864 3.555723 -4.532862 -14.993641 -47.808702 12.465100 7.125000 0.000000 0.000000 -11.477500 9.371100 -170.343500 
16.521527 18.039340 22.731238 173.566371 -8.056061 -151.058003 10.948017 1.111136 -2.622148 -5.112895 -28.940409 -68.174945 8.413648 23.147667 60.094049 0.047411 -8.996809 -21.847327 5.177300 -13.580700 -41.583300 -13.971634 -2.576656 -2.176205 21.364992 18.534974 -16.406396 1.030137 -5.396821 13.448890 -1.822358 -7.405760 -29.111969 -0.977200 6.293000 -17.637000 -4.261321 0.382198 -12.921512 0.940671 1.174705 -3.475139 -0.205015 -0.291105 13.699109 -9.243061 -2.512457 -5.593351 9.524466 -6.363003 29.937507 1.174700 -2.082100 7.692200 16.724457 -1.307941 0.746530 -102.338779 -5.797236 25.037145 16.070846 -19.784228 -3.684209 -1.627184 0.669047 1.797781 21.502731 -12.194325 -5.379000 -7.125000 0.000000 0.000000 -2.857700 16.193500 1.949800 -11.620840 1.326367 0.051678 94.110607 3.310746 14.745509 -20.450322 32.424489 -7.584291 0.571073 3.536166 -4.670814 -15.043557 -47.456861 12.447100 7.125000 0.000000 0.000000 -11.410100 9.704000 -170.480600 
16.453991 18.033657 22.685449 173.695231 -7.807527 -150.720897 10.953064 1.109561 -2.641477 -5.182687 -28.821379 -68.475022 8.504580 23.220930 60.388643 0.151250 -8.784903 -22.328178 5.621000 -14.050800 -43.441200 -13.982346 -2.562606 -2.149122 21.112069 18.628394 -16.772689 1.031955 -5.480062 13.559616 -1.783651 -7.622450 -29.015226 -1.174000 6.877400 -19.352600 -4.377895 0.409728 -13.172141 0.945461 1.237386 -3.480109 -0.078166 -0.280278 13.801167 -9.272387 -2.471919 -5.614326 9.488697 -6.250833 29.815997 1.171200 -2.028300 7.647200 16.725564 -1.307638 0.747372 -102.369416 -5.826138 24.956364 16.097672 -19.831533 -3.699681 -1.621518 0.680181 1.833665 21.466393 -12.319842 -5.424200 -7.125000 0.000000 0.000000 -2.893200 16.052000 1.982900 -11.612847 1.321099 0.050747 93.915733 3.309895 14.994422 -20.529200 32.519501 -7.637432 0.543866 3.603389 -4.784058 -15.082739 -48.636093 12.677000 7.125000 0.000000 0.000000 -11.545000 8.543900 -170.089600 
16.395416 18.063928 22.600209 173.221217 -8.210759 -152.214051 10.872884 1.168791 -2.423628 -6.911534 -29.677057 -66.019297 8.386027 23.043838 60.020971 0.091934 -9.364952 -22.537944 5.638900 -14.069000 -43.514700 -13.866512 -2.742813 -2.520901 21.665830 17.721381 -12.448534 1.178005 -3.960964 10.873868 -1.716577 -8.837936 -28.469177 -1.198400 6.945900 -19.555000 -4.993814 0.188831 -11.501759 0.927473 1.077025 -3.260780 0.101171 -0.385788 13.709015 -9.124629 -2.580285 -5.659552 9.415660 -6.344009 29.716203 1.097000 -2.057800 7.631500 16.714134 -1.311754 0.769585 -102.231004 -6.019744 24.931539 16.024461 -19.709495 -3.661285 -1.600885 0.728296 2.023437 21.329379 -12.607911 -5.520100 -7.125000 0.000000 0.000000 -3.016500 15.710800 2.089900 -11.601790 1.392141 0.079635 93.968171 3.348443 14.884102 -20.516982 32.509116 -7.640194 0.504695 3.734796 -4.758903 -15.189449 -51.039074 13.150000 7.125000 0.000000 0.000000 -11.832600 6.192700 -169.276100 
16.341212 18.051142 22.565021 173.622134 -7.775689 -151.461507 10.924496 1.132268 -2.534179 -6.392491 -29.124386 -66.917647 8.562994 23.187689 60.575256 0.188183 -9.326580 -23.127188 5.542800 -13.970200 -43.118200 -13.943197 -2.617747 -2.339077 21.363231 18.911654 -13.618411 1.192233 -4.314204 11.301932 -1.674596 -9.211109 -28.673892 -1.260000 7.115600 -20.058200 -4.982479 0.421222 -12.122370 0.875687 1.389660 -3.328710 0.118718 -0.250175 13.740533 -9.029092 -2.726391 -5.770907 9.556922 -6.586665 29.693977 1.098500 -2.154300 7.652400 16.720073 -1.321658 0.752799 -102.040164 -6.152283 25.130399 15.972820 -19.639389 -3.634146 -1.608164 0.717306 1.980532 21.384937 -12.458921 -5.471700 -7.125000 0.000000 0.000000 -2.965500 15.874700 2.044000 -11.604684 1.361765 0.059619 94.113298 3.185264 14.775022 -20.549186 32.555547 -7.663349 0.546184 3.712751 -4.798624 -15.849435 -50.532246 13.647600 7.125000 0.000000 0.000000 -11.487600 6.517600 -169.675700 
16.258705 18.054202 22.523494 173.774349 -7.398962 -151.131701 10.934566 1.125323 -2.544709 -6.604658 -28.972836 -67.038140 8.633019 23.224119 60.795615 0.170617 -9.726324 -23.414820 5.167200 -13.569700 -41.540200 -13.931033 -2.624325 -2.324797 21.153931 18.739157 -14.017339 1.172788 -4.372320 11.372654 -1.668516 -8.806633 -28.415551 -1.390800 7.461300 -21.089300 -4.835977 0.570771 -12.287231 0.806650 1.562412 -3.363989 -0.102066 -0.141605 13.668631 -9.074681 -2.621663 -5.636363 9.723488 -6.525440 29.565725 1.173200 -2.125400 7.583600 16.722987 -1.341735 0.751517 -101.942521 -6.089799 25.251195 16.005167 -19.684035 -3.645699 -1.637268 0.679546 1.807247 21.644407 -12.168019 -5.411400 -7.125000 0.000000 0.000000 -2.751600 16.195400 1.877100 -11.637431 1.328226 0.056765 94.152102 2.961736 14.909256 -20.633557 32.665448 -7.719678 0.595487 3.667947 -4.848905 -16.480651 -49.700582 14.058400 7.125000 0.000000 0.000000 -11.096100 7.166800 -170.184300 
16.203080 18.055732 22.468962 173.873207 -7.204703 -150.873589 10.945491 1.113921 -2.562247 -6.641890 -28.878023 -67.061997 8.673840 23.241308 60.926446 0.147869 -10.164745 -23.710140 4.652900 -12.981900 -39.300900 -13.951420 -2.583372 -2.284731 20.930037 19.256541 -14.042285 1.193104 -4.392690 11.355948 -1.615853 -9.333062 -28.393284 -1.467500 7.655600 -21.672700 -5.065970 0.569074 -12.433294 0.786903 1.612966 -3.371453 0.005753 -0.139938 13.699480 -9.085925 -2.523977 -5.615731 9.811424 -6.414351 29.504940 1.208700 -2.063300 7.554300 16.729898 -1.350862 0.756500 -101.815454 -6.093864 25.351033 16.007703 -19.694753 -3.646039 -1.651182 0.666479 1.757477 21.786126 -12.045823 -5.394800 -7.125000 0.000000 0.000000 -2.637500 16.324800 1.791700 -11.640256 1.315978 0.058650 94.195709 2.882966 14.970790 -20.743650 32.790642 -7.787139 0.544070 3.730887 -4.723965 -15.944844 -51.112097 13.821100 7.125000 0.000000 0.000000 -11.535600 5.948800 -169.502000 
16.135654 18.066114 22.402191 173.781366 -6.839130 -151.006440 10.934934 1.116733 -2.528355 -7.338162 -28.880897 -66.437892 8.650047 23.203490 60.869667 0.197459 -10.243877 -24.092304 4.896700 -13.266500 -40.374400 -13.928688 -2.579356 -2.324032 20.660012 19.428766 -13.478097 1.191481 -4.281317 11.234044 -1.594779 -9.504502 -28.256642 -1.480000 7.686700 -21.766500 -5.509533 0.587588 -12.240121 0.741723 1.734862 -3.334948 0.167500 -0.115010 13.682755 -9.055105 -2.544643 -5.608935 9.821004 -6.443928 29.489037 1.193700 -2.070700 7.547400 16.726520 -1.348663 0.763082 -101.747882 -6.035406 25.378971 15.979449 -19.663890 -3.636220 -1.635131 0.672278 1.699111 21.605701 -12.110416 -5.375200 -7.125000 0.000000 0.000000 -2.777600 16.265500 1.890700 -11.640411 1.317469 0.057903 94.167407 2.622841 15.184659 -20.953036 32.989103 -7.885379 0.550362 3.576219 -4.612605 -15.066633 -48.486814 12.630400 7.125000 0.000000 0.000000 -11.534000 8.708900 -170.138100 
16.061123 18.074201 22.348862 173.598986 -6.676564 -150.725623 10.930444 1.125171 -2.506518 -7.794395 -29.139587 -66.521889 8.695159 23.243329 61.028547 0.305799 -9.990864 -24.524736 5.484500 -13.909400 -42.875900 -13.907133 -2.579219 -2.322217 20.067974 19.460129 -13.569988 1.185524 -4.260746 11.189541 -1.558828 -9.574599 -28.031660 -1.496500 7.727400 -21.889000 -5.865185 0.525701 -12.327727 0.703339 1.727635 -3.390114 0.217444 -0.133866 13.546675 -8.951663 -2.717442 -5.493158 9.688353 -6.672447 29.452209 1.101200 -2.189900 7.510700 16.722330 -1.331323 0.751859 -101.769494 -5.872392 25.188503 15.952505 -19.632745 -3.623435 -1.630510 0.674452 1.752769 21.555757 -12.104698 -5.359500 -7.125000 0.000000 0.000000 -2.814700 16.275900 1.915400 -11.640076 1.306281 0.049900 94.117741 2.402302 15.371463 -20.951929 33.014274 -7.900958 0.534450 3.700629 -4.559200 -15.486212 -50.731539 13.354800 7.125000 0.000000 0.000000 -11.666800 6.431400 -169.487800 
